name rise44.8762peak52.3436fall86.788.mot
datacolumns 19
datarows 29
range 23.58324500000000 23.62990500000000
endheader
time	ground_force1_vx	ground_force1_vy	ground_force1_vz	ground_force1_px	ground_force1_py	ground_force1_pz	ground_force2_vx	ground_force2_vy	ground_force2_vz	ground_force2_px	ground_force2_py	ground_force2_pz	ground_torque1_x	ground_torque1_y	ground_torque1_z	ground_torque2_x	ground_torque2_y	ground_torque2_z	
23.58324500000000	-10.95945500000000	41.21248900000000	-12.72094000000000	0.29921100000000	0.00000000000000	0.08988700000000	-43.09184600000000	789.87325099999998	-62.04429600000000	0.11924800000000	0.00000000000000	-0.10420300000000	0.00000000000000	-7.08318000000000	0.00000000000000	0.00000000000000	-21.96704100000000	0.00000000000000	
23.58490700000000	-12.15391900000000	48.27576200000000	-14.27006400000000	0.30382000000000	0.00000000000000	0.09132200000000	-43.55844500000000	787.00275899999997	-61.76780700000000	0.11858600000000	0.00000000000000	-0.10412600000000	0.00000000000000	-8.01348000000000	0.00000000000000	0.00000000000000	-21.90233600000000	0.00000000000000	
23.58657100000000	-13.17873100000000	55.42106200000000	-15.66543800000000	0.30799700000000	0.00000000000000	0.09263100000000	-44.03136200000000	784.01247999999998	-61.46508500000000	0.11792900000000	0.00000000000000	-0.10404500000000	0.00000000000000	-8.86901400000000	0.00000000000000	0.00000000000000	-21.83666400000000	0.00000000000000	
23.58824200000000	-14.00491300000000	62.55600200000000	-16.87344100000000	0.31180700000000	0.00000000000000	0.09383100000000	-44.51041800000000	780.90199299999995	-61.13577600000000	0.11727800000000	0.00000000000000	-0.10395900000000	0.00000000000000	-9.62925600000000	0.00000000000000	0.00000000000000	-21.77005500000000	0.00000000000000	
23.58991200000000	-14.61462800000000	69.61099700000000	-17.87208200000000	0.31530500000000	0.00000000000000	0.09494000000000	-44.99537800000000	777.67082900000003	-60.77955800000000	0.11663300000000	0.00000000000000	-0.10386800000000	0.00000000000000	-10.28014000000000	0.00000000000000	0.00000000000000	-21.70252600000000	0.00000000000000	
23.59157100000000	-15.00112300000000	76.54138700000000	-18.65110300000000	0.31853100000000	0.00000000000000	0.09597000000000	-45.48595300000000	774.31847000000005	-60.39614300000000	0.11599400000000	0.00000000000000	-0.10377300000000	0.00000000000000	-10.81425600000000	0.00000000000000	0.00000000000000	-21.63408300000000	0.00000000000000	
23.59324500000000	-15.16776900000000	83.32715500000000	-19.21111900000000	0.32152300000000	0.00000000000000	0.09693000000000	-45.98179800000000	770.84434499999998	-59.98527900000000	0.11536200000000	0.00000000000000	-0.10367200000000	0.00000000000000	-11.23046200000000	0.00000000000000	0.00000000000000	-21.56472400000000	0.00000000000000	
23.59490900000000	-15.12644000000000	89.97066100000001	-19.56200400000000	0.32431000000000	0.00000000000000	0.09783100000000	-46.48250800000000	767.24782700000003	-59.54675300000000	0.11473700000000	0.00000000000000	-0.10356700000000	0.00000000000000	-11.53305700000000	0.00000000000000	0.00000000000000	-21.49443500000000	0.00000000000000	
23.59657600000000	-14.89546900000000	96.49292400000000	-19.72080500000000	0.32691600000000	0.00000000000000	0.09867800000000	-46.98762000000000	763.52823300000000	-59.08039400000000	0.11411900000000	0.00000000000000	-0.10345700000000	0.00000000000000	-11.73063600000000	0.00000000000000	0.00000000000000	-21.42318900000000	0.00000000000000	
23.59824300000000	-14.49743200000000	102.92901000000001	-19.70942800000000	0.32936300000000	0.00000000000000	0.09947800000000	-47.49661100000000	759.68482200000005	-58.58607200000000	0.11350900000000	0.00000000000000	-0.10334200000000	0.00000000000000	-11.83479600000000	0.00000000000000	0.00000000000000	-21.35095000000000	0.00000000000000	
23.59991000000000	-13.95697100000000	109.32307100000000	-19.55233200000000	0.33166800000000	0.00000000000000	0.10023600000000	-48.00889700000000	755.71679800000004	-58.06370600000000	0.11290800000000	0.00000000000000	-0.10322100000000	0.00000000000000	-11.85881700000000	0.00000000000000	0.00000000000000	-21.27766800000000	0.00000000000000	
23.60157200000000	-13.29881600000000	115.72348800000000	-19.27440800000000	0.33384700000000	0.00000000000000	0.10095600000000	-48.52383300000000	751.62330499999996	-57.51326100000000	0.11231500000000	0.00000000000000	-0.10309500000000	0.00000000000000	-11.81643800000000	0.00000000000000	0.00000000000000	-21.20328400000000	0.00000000000000	
23.60324400000000	-12.54614500000000	122.17849600000000	-18.89920000000000	0.33591300000000	0.00000000000000	0.10164200000000	-49.04071200000000	747.40343399999995	-56.93475200000000	0.11173100000000	0.00000000000000	-0.10296400000000	0.00000000000000	-11.72079900000000	0.00000000000000	0.00000000000000	-21.12772500000000	0.00000000000000	
23.60490700000000	-11.71934500000000	128.73255000000000	-18.44752200000000	0.33787700000000	0.00000000000000	0.10229600000000	-49.55876700000000	743.05622400000004	-56.32824500000000	0.11115800000000	0.00000000000000	-0.10282700000000	0.00000000000000	-11.58361700000000	0.00000000000000	0.00000000000000	-21.05090600000000	0.00000000000000	
23.60657400000000	-10.83519200000000	135.42358100000001	-17.93653500000000	0.33975000000000	0.00000000000000	0.10292200000000	-50.07717000000000	738.58066399999996	-55.69386300000000	0.11059400000000	0.00000000000000	-0.10268400000000	0.00000000000000	-11.41461000000000	0.00000000000000	0.00000000000000	-20.97273100000000	0.00000000000000	
23.60823800000000	-9.90645800000000	142.28119200000000	-17.37925800000000	0.34153800000000	0.00000000000000	0.10352200000000	-50.59503100000000	733.97569699999997	-55.03178200000000	0.11004200000000	0.00000000000000	-0.10253600000000	0.00000000000000	-11.22117900000000	0.00000000000000	0.00000000000000	-20.89309200000000	0.00000000000000	
23.60990400000000	-8.94188000000000	149.32576499999999	-16.78447500000000	0.34325000000000	0.00000000000000	0.10409700000000	-51.11140100000000	729.24023000000000	-54.34223500000000	0.10950200000000	0.00000000000000	-0.10238200000000	0.00000000000000	-11.00832000000000	0.00000000000000	0.00000000000000	-20.81187000000000	0.00000000000000	
23.61157400000000	-7.94643900000000	156.56838800000000	-16.15698100000000	0.34489200000000	0.00000000000000	0.10465000000000	-51.62527400000000	724.37313600000004	-53.62551500000000	0.10897400000000	0.00000000000000	-0.10222200000000	0.00000000000000	-10.77872900000000	0.00000000000000	0.00000000000000	-20.72893200000000	0.00000000000000	
23.61323800000000	-6.92186400000000	164.01143600000000	-15.49807500000000	0.34646900000000	0.00000000000000	0.10518300000000	-52.13558700000000	719.37326199999995	-52.88197200000000	0.10845800000000	0.00000000000000	-0.10205600000000	0.00000000000000	-10.53307200000000	0.00000000000000	0.00000000000000	-20.64413800000000	0.00000000000000	
23.61490700000000	-5.86729300000000	171.64966899999999	-14.80623200000000	0.34798600000000	0.00000000000000	0.10569500000000	-52.64122100000000	714.23944100000006	-52.11202100000000	0.10795700000000	0.00000000000000	-0.10188500000000	0.00000000000000	-10.27034800000000	0.00000000000000	0.00000000000000	-20.55733100000000	0.00000000000000	
23.61657300000000	-4.78000100000000	179.47165200000001	-14.07785800000000	0.34944700000000	0.00000000000000	0.10619000000000	-53.14100500000000	708.97050200000001	-51.31613200000000	0.10747000000000	0.00000000000000	-0.10170700000000	0.00000000000000	-9.98832000000000	0.00000000000000	0.00000000000000	-20.46835000000000	0.00000000000000	
23.61824500000000	-3.65613200000000	187.46133000000000	-13.30806500000000	0.35085400000000	0.00000000000000	0.10666700000000	-53.63371900000000	703.56527900000003	-50.49484100000000	0.10699700000000	0.00000000000000	-0.10152300000000	0.00000000000000	-9.68396000000000	0.00000000000000	0.00000000000000	-20.37701900000000	0.00000000000000	
23.61990600000000	-2.49138700000000	195.59963300000001	-12.49140100000000	0.35221200000000	0.00000000000000	0.10712800000000	-54.11809400000000	698.02262599999995	-49.64874400000000	0.10654100000000	0.00000000000000	-0.10133200000000	0.00000000000000	-9.35387100000000	0.00000000000000	0.00000000000000	-20.28315500000000	0.00000000000000	
23.62157700000000	-1.28161200000000	203.86596000000000	-11.62249000000000	0.35352200000000	0.00000000000000	0.10757400000000	-54.59281800000000	692.34143099999994	-48.77849800000000	0.10610000000000	0.00000000000000	-0.10113600000000	0.00000000000000	-8.99466800000000	0.00000000000000	0.00000000000000	-20.18656400000000	0.00000000000000	
23.62324300000000	-0.02327700000000	212.23948200000001	-10.69655600000000	0.35478600000000	0.00000000000000	0.10800500000000	-55.05653700000000	686.52062699999999	-47.88482100000000	0.10567700000000	0.00000000000000	-0.10093300000000	0.00000000000000	-8.60328200000000	0.00000000000000	0.00000000000000	-20.08704600000000	0.00000000000000	
23.62491200000000	1.28618300000000	220.70018500000000	-9.70980700000000	0.35600600000000	0.00000000000000	0.10842100000000	-55.50786200000000	680.55921300000000	-46.96849100000000	0.10527100000000	0.00000000000000	-0.10072400000000	0.00000000000000	-8.17720100000000	0.00000000000000	0.00000000000000	-19.98439200000000	0.00000000000000	
23.62657300000000	2.64815600000000	229.22964600000000	-8.65968500000000	0.35718200000000	0.00000000000000	0.10882500000000	-55.94536800000000	674.45626400000003	-46.03034700000000	0.10488300000000	0.00000000000000	-0.10050800000000	0.00000000000000	-7.71462000000000	0.00000000000000	0.00000000000000	-19.87838600000000	0.00000000000000	
23.62824600000000	4.06276100000000	237.81151800000001	-7.54498200000000	0.35831700000000	0.00000000000000	0.10921500000000	-56.36760400000000	668.21095000000003	-45.07128300000000	0.10451400000000	0.00000000000000	-0.10028600000000	0.00000000000000	-7.21452200000000	0.00000000000000	0.00000000000000	-19.76880800000000	0.00000000000000	
23.62990500000000	5.52886100000000	246.43177200000000	-6.36584900000000	0.35941000000000	0.00000000000000	0.10959300000000	-56.77309200000000	661.82254699999999	-44.09225200000000	0.10416500000000	0.00000000000000	-0.10005800000000	0.00000000000000	-6.67668900000000	0.00000000000000	0.00000000000000	-19.65543000000000	0.00000000000000	
